<svg width="242" height="482" viewBox="0 0 242 482" fill="none" xmlns="http://www.w3.org/2000/svg">
<path d="M59.5742 276.909L64.6082 283.201L66.2862 284.04L67.1252 285.299L66.7057 287.396L66.2862 289.494L67.1252 291.172L72.1592 289.913L70.4812 285.718L69.6422 283.621L67.9642 281.104L65.8667 279.426L62.0912 276.909H59.5742Z" fill="#F6F4F2"/>
<path d="M66.2871 296.528C66.2871 295.424 67.1825 294.528 68.2871 294.528H70.09C71.2215 294.528 72.1278 295.466 72.0888 296.597L71.8023 304.906C71.7672 305.924 70.9725 306.753 69.9568 306.831L68.4405 306.947C67.2789 307.037 66.2871 306.118 66.2871 304.953V296.528Z" fill="#F6F4F2"/>
<path d="M57.4778 269.778C57.4778 272.756 56.411 276.82 55.799 278.906C55.5399 279.79 54.9733 280.716 54.0529 280.739C53.9287 280.742 53.8093 280.727 53.7023 280.685C53.2711 280.515 52.8633 279.846 52.8633 279.846L57.4778 269.778Z" fill="#F6F4F2"/>
<path d="M54.121 269.358C54.121 269.358 54.5154 272.719 54.121 274.811C53.8563 276.217 53.0685 277.94 52.4441 279.155C51.9235 280.168 51.0601 281.211 49.926 281.104C49.1967 281.035 48.248 280.265 48.248 280.265L54.121 269.358Z" fill="#F6F4F2"/>
<path d="M50.7645 274.811C51.6614 272.3 49.9255 267.68 49.9255 267.68L45.7305 280.684C45.7305 280.684 48.667 280.684 50.7645 274.811Z" fill="#F6F4F2"/>
<path d="M47.4092 274.392C47.281 271.831 44.4727 268.519 44.4727 268.519C44.4727 268.519 40.2799 280.27 40.6972 281.524C41.1163 282.782 42.3755 282.363 43.2142 281.943C44.5671 281.266 47.5779 277.761 47.4092 274.392Z" fill="#F6F4F2"/>
<path d="M116.625 295.367C116.625 295.367 121.224 302.35 125.686 314.679C129.57 325.409 129.57 359.313 129.57 359.313L131.727 388.496" stroke="#1D1E22" stroke-width="1.25" stroke-linecap="round"/>
<path d="M78.0312 320.537C78.0312 320.537 80.0423 320.537 81.8068 317.601C82.7501 316.031 82.6458 312.986 82.6458 312.986" stroke="#1D1E22" stroke-width="1.25" stroke-linecap="round"/>
<path d="M101.104 325.571L117.29 375.789C117.404 376.143 117.608 376.453 117.89 376.694C120.028 378.52 129.722 386.833 135.922 392.691C147.124 403.275 159.834 417.022 163.19 421.217C166.546 425.412 164.029 428.768 164.029 428.768" stroke="#1D1E22" stroke-width="1.25" stroke-linecap="round"/>
<path d="M130.889 269.777C130.889 269.777 136.348 276.26 134.665 282.362C131.309 294.528 96.4902 293.689 96.4902 293.689" stroke="#1D1E22" stroke-width="1.25" stroke-linecap="round"/>
<path d="M109.914 298.303C109.914 298.303 109.075 302.918 111.592 306.274C114.109 309.63 118.304 309.63 118.304 309.63" stroke="#1D1E22" stroke-width="1.25" stroke-linecap="round"/>
<path d="M62.0916 191.75C62.0916 191.75 62.9306 198.462 57.477 199.302C52.9986 199.991 49.8549 195.849 49.5073 191.331C49.1598 186.813 54.1981 183.952 56.2185 182.941C57.8965 182.102 56.047 177.621 58.316 175.81C60.0244 174.447 61.6038 174.257 63.7695 174.551C64.4388 174.643 64.8067 174.758 65.4475 174.971C66.706 175.39 64.6085 171.195 70.4815 167.839C71.7929 167.09 72.7466 166.993 74.257 167C77.4082 167.017 78.3781 169.844 81.3885 170.776C84.69 171.797 87.2487 169.814 90.198 171.615C91.7798 172.581 92.7513 173.3 93.554 174.971C94.8391 177.645 92.1215 182.522 92.715 182.522C95.6515 182.521 95.8967 182.926 97.3295 184.2C99.2651 185.921 99.6161 187.909 99.427 190.492C99.2716 192.616 99.089 194.326 97.3295 195.526C96.2135 196.288 95.3186 196.491 93.9735 196.365C92.7313 196.249 92.2844 195.082 91.037 195.107C90.3617 195.12 90.0321 195.469 89.359 195.526C86.3491 195.783 86.4844 191.279 83.4861 190.911C81.2744 190.64 79.8366 191.605 77.6131 191.75C75.1124 191.914 72.9986 190.911 72.1596 190.492C71.7401 190.282 68.8242 191.969 67.1256 192.17C65.1665 192.402 62.0916 191.75 62.0916 191.75Z" fill="#1D1E22" stroke="#1D1E22" stroke-width="1.25"/>
<path d="M66.2871 197.204L72.1601 195.526" stroke="#1D1E22" stroke-width="1.25" stroke-linecap="round"/>
<path d="M78.0312 195.945L84.3238 196.784" stroke="#1D1E22" stroke-width="1.25" stroke-linecap="round"/>
<ellipse cx="69.6417" cy="200.141" rx="0.839" ry="1.2585" fill="#1D1E22"/>
<ellipse cx="80.5497" cy="200.14" rx="0.839" ry="1.2585" transform="rotate(3.0709 80.5497 200.14)" fill="#1D1E22"/>
<path d="M74.2031 203.5C74.2031 203.591 74.1857 203.619 74.12 203.691C73.8144 204.027 73.5539 204.432 73.3272 204.824C73.0535 205.298 72.7957 205.826 72.7036 206.369C72.6857 206.474 72.6899 206.579 72.6899 206.685C72.6899 206.822 72.834 206.865 72.944 206.91C73.351 207.076 73.8149 207.09 74.2383 207.196" stroke="#1D1E22" stroke-width="1.25" stroke-linecap="round"/>
<path d="M73.3436 214.188C72.2171 214.188 75.6034 214.23 76.7218 214.095C77.5166 213.999 78.3427 213.875 79.0974 213.599C79.5753 213.425 80.0419 213.221 80.4845 212.97C81.1586 212.587 81.5967 211.936 81.9401 211.26C81.9915 211.159 82.0518 211.062 82.0977 210.958C82.1349 210.874 82.1496 210.785 82.1811 210.7C82.2001 210.648 82.2159 210.588 82.2553 210.549" stroke="#1D1E22" stroke-width="1.25" stroke-linecap="round"/>
<path d="M59.873 198.713C59.873 199.152 59.7494 199.52 59.4616 199.857C59.3538 199.984 59.1865 200.055 59.0341 200.113C58.7845 200.209 58.5404 200.362 58.3114 200.5C57.1923 201.171 56.9548 202.777 57.0914 203.975C57.1379 204.383 57.2742 204.779 57.3687 205.177C57.4346 205.455 57.5185 205.725 57.6209 205.991C57.7681 206.374 57.9765 206.722 58.1915 207.07C58.4319 207.458 58.7057 207.899 59.043 208.211C59.8149 208.926 60.6709 209.53 61.7083 209.789" stroke="#1D1E22" stroke-width="1.25" stroke-linecap="round"/>
<path d="M90.2874 195.405C90.2874 196.375 90.2345 197.358 90.9789 198.103C91.2146 198.338 91.5369 198.52 91.7971 198.732C92.0669 198.952 92.2439 199.203 92.4579 199.472C92.8476 199.961 93.1116 200.53 93.1973 201.149C93.3189 202.027 93.4845 203.17 93.2316 204.032C93.0849 204.532 92.8695 205.048 92.6872 205.538C92.5306 205.959 92.2811 206.384 92.0128 206.743C91.371 207.603 90.0965 208.715 88.9316 208.715" stroke="#1D1E22" stroke-width="1.25" stroke-linecap="round"/>
<path d="M61.2539 205.175C61.2539 205.175 62.9319 222.374 75.5169 222.374C87.6824 222.374 88.5214 205.175 88.5214 205.175" stroke="#1D1E22" stroke-width="1.25" stroke-linecap="round"/>
<path d="M68.7862 220.696C68.7862 221.761 68.7862 222.826 68.7862 223.891C68.7862 224.926 68.8423 225.979 68.7493 227.012C68.6925 227.643 68.5351 228.288 68.3857 228.905C68.1798 229.755 67.9099 230.604 67.5643 231.409C67.4175 231.752 67.2449 232.093 67.125 232.442" stroke="#1D1E22" stroke-width="1.25" stroke-linecap="round"/>
<path d="M80.5595 221.535C80.5595 222.55 80.5255 223.572 80.5788 224.586C80.6257 225.48 80.8106 226.353 80.9937 227.225C81.1582 228.008 81.3753 228.785 81.6714 229.525C82.2249 230.907 83.0623 232.093 83.9048 233.281" stroke="#1D1E22" stroke-width="1.25" stroke-linecap="round"/>
<path d="M88.9382 229.925L78.2148 238.374C76.4881 239.734 73.9809 239.456 72.5034 237.828C69.1465 234.13 63.1517 228.19 58.3147 226.989M88.9382 229.925L81.3872 226.989M88.9382 229.925C88.9382 229.925 90.7226 230.345 91.4552 230.345C96.0697 230.345 103.023 229.263 108.235 232.023C114.407 235.29 127.49 254.266 130.9 259.315C131.398 260.051 131.325 261.002 130.675 261.608C128.58 263.563 123.067 268.08 111.591 273.973C110.939 274.307 110.569 273.461 109.913 273.134C109.258 272.806 108.891 272.622 108.235 272.295M108.235 272.295C107.744 263.12 106.977 248.803 106.977 248.803M108.235 272.295C108.891 274.097 109.913 276.909 109.913 276.909M58.3147 226.989C55.119 226.195 53.993 225.574 49.9247 226.15C41.9614 227.275 37.3397 230.345 30.6277 237.476C28.0819 240.181 24.6661 242.358 22.3398 243.667C21.1068 244.361 20.8339 246.09 21.8574 247.067L36.9929 261.514C37.6824 262.172 38.7401 262.253 39.4999 261.677C40.5073 260.914 41.8736 259.824 42.7932 258.871C43.7853 257.843 44.9 256.308 45.6594 255.204C46.084 254.586 47.0185 254.606 47.3975 255.252C48.7545 257.567 51.4791 262.199 53.2807 265.163M58.3147 226.989L68.8022 226.569M66.7047 290.333C66.7047 290.333 66.3993 289.58 66.2852 289.075C65.9226 287.469 67.52 286.31 66.7047 284.88C66.1852 283.968 65.4021 283.886 64.6072 283.202C60.8641 279.979 59.038 276.715 57.3289 273.134" stroke="#1D1E22" stroke-width="1.25" stroke-linecap="round"/>
<path d="M113.688 272.714C113.688 272.714 114.455 275.015 114.946 276.489M114.946 276.489C117.076 276.326 119.98 276.07 119.98 276.07M114.946 276.489C111.59 276.909 108.328 277.801 105.297 279.006C102.626 280.069 100.105 282.389 97.7464 282.782C93.6551 283.464 89.3564 284.46 88.9369 284.46C85.5635 284.46 83.4838 279.426 80.1274 280.265C75.2268 281.49 67.9618 278.587 69.2202 282.362C69.6398 283.621 73.4155 284.46 73.4155 284.46" stroke="#1D1E22" stroke-width="1.25" stroke-linecap="round"/>
<path d="M68.9062 298.475H75.4796" stroke="#1D1E22" stroke-width="1.25" stroke-linecap="round"/>
<path d="M71.418 300.026C73.1158 300.026 74.7014 300.603 76.2926 301.134" stroke="#1D1E22" stroke-width="1.25" stroke-linecap="round"/>
<path d="M75.4062 302.537C75.8298 302.96 76.3249 303.412 76.9573 303.423C77.9549 303.441 78.9911 303.478 79.9567 303.189C83.659 302.084 86.7511 299.518 89.5869 296.998" stroke="#1D1E22" stroke-width="1.25" stroke-linecap="round"/>
<path d="M60.8338 294.528C64.4331 291.564 72.9995 289.914 72.9995 289.914L72.1603 295.367H70.063C70.063 295.367 56.3717 304.177 56.2195 302.079C55.9365 298.181 57.817 297.012 60.8338 294.528Z" fill="#F6F4F2"/>
<path d="M72.9995 289.914C72.9995 289.914 64.4331 291.564 60.8338 294.528C57.817 297.012 55.9365 298.181 56.2195 302.079C56.3717 304.177 70.063 295.367 70.063 295.367" stroke="#1D1E22" stroke-width="1.25" stroke-linecap="round"/>
<path d="M56.1046 296.556C55.5901 296.556 55.258 296.253 55.1071 295.766C55.0013 295.425 55.0049 295.044 55.0246 294.689C55.0505 294.222 55.388 293.837 55.6979 293.518C56.7633 292.421 58.2346 291.796 59.6266 291.23C60.0575 291.055 60.495 290.898 60.9342 290.746C61.0761 290.697 61.2234 290.629 61.3681 290.593" stroke="#1D1E22" stroke-width="1.25" stroke-linecap="round"/>
<path d="M66.1811 297.781C66.1811 299.208 66.2051 300.636 66.1495 302.062C66.1199 302.822 66.1028 303.583 66.0719 304.344C66.0485 304.922 66.0082 305.518 66.1581 306.085C66.2457 306.415 66.4409 307.024 66.8047 307.155C67.4798 307.399 68.3428 307.188 69.0028 307.01C70.1174 306.709 71.1899 306.221 72.264 305.802C72.5226 305.701 72.9237 305.656 73.0599 305.384" stroke="#1D1E22" stroke-width="1.25" stroke-linecap="round"/>
<path d="M85.585 307.113C82.2946 307.237 77.8242 307.936 75.1922 308.392C74.0534 308.589 73 307.716 73 306.56C73 305.667 73.6423 304.904 74.5221 304.751L82.6485 303.338C82.6485 303.338 87.0204 302.697 89.78 302.079C93.2714 301.297 95.2355 300.808 98.5895 299.562C102.505 298.107 104.103 295.537 108.238 294.948C110.184 294.67 113.272 294.948 113.272 294.948C113.272 294.948 117.553 295.118 117.887 294.109C118.092 293.486 117.236 292.512 117.887 292.431C118.25 292.385 118.482 292.576 118.726 292.85C119.161 293.34 118.969 293.92 118.726 294.528C118.467 295.173 118.011 295.354 117.467 295.787C116.086 296.885 114.918 296.829 113.272 297.465C111.966 297.969 111.205 298.177 109.916 298.723C106.267 300.268 104.727 302.146 101.107 303.757C98.3356 304.99 96.3854 305.947 93.975 306.549C92.9678 306.801 91.8803 306.991 90.619 307.113C88.6623 307.303 87.5495 307.039 85.585 307.113Z" fill="#1D1E22"/>
<path d="M93.975 306.549C92.9678 306.801 91.8803 306.991 90.619 307.113C88.6623 307.303 87.5495 307.039 85.585 307.113C82.2946 307.237 77.8242 307.936 75.1922 308.392C74.0534 308.589 73 307.716 73 306.56V306.56C73 305.667 73.6423 304.904 74.5221 304.751L82.6485 303.338C82.6485 303.338 87.0204 302.697 89.78 302.079C93.2714 301.297 95.2355 300.808 98.5895 299.562C102.505 298.107 104.103 295.537 108.238 294.948C110.184 294.67 113.272 294.948 113.272 294.948C113.272 294.948 117.553 295.118 117.887 294.109C118.092 293.486 117.236 292.512 117.887 292.431C118.25 292.385 118.482 292.576 118.726 292.85C119.161 293.34 118.969 293.92 118.726 294.528C118.467 295.173 118.011 295.354 117.467 295.787C116.086 296.885 114.918 296.829 113.272 297.465C111.966 297.969 111.205 298.177 109.916 298.723C106.267 300.268 104.727 302.146 101.107 303.757C98.3356 304.99 96.3854 305.947 93.975 306.549ZM93.975 306.549C93.975 306.549 95.2335 315.083 96.9115 316.761C98.5895 318.439 104.463 320.537 104.463 320.537" stroke="#1D1E22" stroke-width="1.25" stroke-linecap="round"/>
<rect x="87" y="302.611" width="10.496" height="6.00095" rx="3.00047" transform="rotate(-16.3098 87 302.611)" fill="#1D1E22" stroke="#F6F4F2" stroke-width="1.25"/>
<path d="M73.8375 307.952C73.8375 307.952 72.6327 310.185 72.1595 311.728C70.5627 316.934 73.8375 325.571 73.8375 325.571C73.8375 325.571 81.1708 347.427 86.4225 361.229C90.6312 372.289 95.2324 384.721 97.749 389.335C100.266 393.95 107.186 397.003 112.851 402.34C122.982 411.883 131.309 422.056 136.763 428.768C142.216 435.48 147.67 447.646 147.67 447.646" stroke="#1D1E22" stroke-width="1.25" stroke-linecap="round"/>
<path d="M110.332 400.661L114.108 451.421" stroke="#1D1E22" stroke-width="1.25" stroke-linecap="round"/>
<path d="M135.924 428.768L139.992 449.893C140.074 450.32 140.015 450.763 139.823 451.153L139.28 452.26" stroke="#1D1E22" stroke-width="1.25" stroke-linecap="round"/>
<path d="M136.462 452.26H113.87C113.227 452.26 112.619 452.552 112.218 453.054C111.537 453.905 111.117 454.934 111.009 456.018L110.712 458.985C110.472 461.388 109.257 463.587 107.352 465.069C106.831 465.474 106.226 465.757 105.581 465.897L98.7604 467.38C97.5389 467.645 96.3451 468.119 95.5382 469.073C94.5063 470.294 93.3098 472.381 93.556 475.333C93.9201 479.699 97.4401 480.594 98.3671 480.754C98.5162 480.78 98.6678 480.784 98.8189 480.781L113.845 480.439C115.717 480.397 117.309 479.061 117.676 477.225L117.856 476.327C117.876 476.226 117.926 476.133 117.999 476.06C118.466 475.592 119.093 475.319 119.754 475.296L128.917 474.969C129.909 474.933 130.871 475.312 131.573 476.014C131.675 476.116 131.744 476.248 131.77 476.391L131.965 477.462C132.311 479.367 134.011 480.723 135.945 480.639L137.818 480.558C140.383 480.446 142.52 478.554 142.942 476.022C143.018 475.564 143.042 475.099 143.013 474.635L141.908 456.946C141.837 455.819 141.358 454.756 140.559 453.957C139.472 452.87 137.999 452.26 136.462 452.26Z" stroke="#1D1E22" stroke-width="1.25" stroke-linecap="round"/>
<path d="M99.8301 466.671C100.134 466.671 100.421 466.664 100.716 466.753C101.122 466.876 101.537 467.044 101.89 467.283C102.567 467.739 103.084 468.35 103.607 468.97C103.819 469.221 103.966 469.5 104.115 469.791C104.29 470.135 104.474 470.491 104.63 470.844C104.727 471.061 104.853 471.262 104.951 471.479C104.989 471.565 105.027 471.762 105.115 471.806" stroke="#1D1E22" stroke-width="1.25" stroke-linecap="round"/>
<path d="M104.996 465.476C105.333 465.499 105.709 465.734 106.011 465.871C106.497 466.09 106.978 466.322 107.444 466.581C108.087 466.938 108.726 467.236 109.237 467.778C109.582 468.143 109.952 468.516 110.118 468.999C110.173 469.159 110.23 469.312 110.279 469.475C110.29 469.512 110.335 469.697 110.37 469.626" stroke="#1D1E22" stroke-width="1.25" stroke-linecap="round"/>
<path d="M161.553 430.605L147.628 448.395C147.231 448.901 147.087 449.56 147.234 450.186C147.485 451.246 148.037 452.211 148.823 452.964L150.977 455.027C152.72 456.697 153.703 459.009 153.696 461.423C153.694 462.083 153.543 462.734 153.256 463.328L150.22 469.612C149.676 470.738 149.313 471.97 149.567 473.194C149.893 474.759 150.798 476.987 153.274 478.613C156.937 481.018 159.811 478.797 160.509 478.166C160.621 478.065 160.718 477.948 160.808 477.827L169.801 465.785C170.922 464.284 170.851 462.207 169.632 460.786L169.035 460.091C168.968 460.013 168.926 459.916 168.913 459.814C168.833 459.158 169.005 458.496 169.393 457.961L174.784 450.544C175.367 449.741 176.258 449.217 177.244 449.097C177.388 449.08 177.534 449.106 177.663 449.174L178.626 449.681C180.34 450.582 182.455 450.08 183.581 448.506L184.671 446.981C186.165 444.892 185.993 442.043 184.258 440.149C183.945 439.807 183.593 439.501 183.211 439.239L168.6 429.205C167.669 428.566 166.536 428.289 165.415 428.425C163.89 428.611 162.5 429.395 161.553 430.605Z" stroke="#1D1E22" stroke-width="1.25" stroke-linecap="round"/>
<path d="M150.32 468.333C150.508 468.093 150.679 467.864 150.932 467.686C151.279 467.442 151.667 467.219 152.072 467.088C152.849 466.836 153.648 466.805 154.459 466.776C154.787 466.764 155.098 466.82 155.418 466.882C155.797 466.956 156.192 467.031 156.566 467.125C156.796 467.183 157.032 467.208 157.263 467.265C157.355 467.287 157.533 467.379 157.622 467.337" stroke="#1D1E22" stroke-width="1.25" stroke-linecap="round"/>
<path d="M152.564 463.529C152.791 463.278 153.207 463.127 153.501 462.973C153.973 462.726 154.452 462.489 154.943 462.282C155.621 461.996 156.25 461.677 156.992 461.608C157.491 461.562 158.014 461.5 158.496 461.667C158.656 461.723 158.812 461.772 158.97 461.834C159.006 461.848 159.179 461.927 159.145 461.855" stroke="#1D1E22" stroke-width="1.25" stroke-linecap="round"/>
<path d="M22.2392 247.963C22.2392 247.963 9.23443 256.773 3.78121 263.904C1.67258 266.662 0.424826 271.455 1.26414 273.553C1.92247 275.198 2.61236 275.737 3.36171 276.07C7.13756 277.748 39.8582 276.489 39.8582 276.489" stroke="#1D1E22" stroke-width="1.25" stroke-linecap="round"/>
<path d="M16.7832 260.969C16.7832 260.969 18.2965 260.976 20.5587 261.387C25.1089 262.216 33.5632 266.003 33.5632 266.003" stroke="#1D1E22" stroke-width="1.25" stroke-linecap="round"/>
<path d="M31.4688 265.163L35.2443 260.548" stroke="#1D1E22" stroke-width="1.25" stroke-linecap="round"/>
<path d="M31.4688 268.524C31.4688 268.524 34.8248 266.426 36.9223 265.587C39.0198 264.748 41.9563 265.168 41.9563 265.168C41.9563 265.168 43.7029 264.41 44.8928 264.329C46.5708 264.214 48.2488 265.168 48.2488 265.168C48.2488 265.168 49.6353 264.556 50.7658 264.748C51.787 264.923 53.2828 265.587 53.2828 265.587C53.2828 265.587 54.8963 265.2 55.7998 265.587C57.4199 266.282 57.4778 268.519 57.4778 269.778C57.4778 272.756 56.411 276.82 55.799 278.906C55.5399 279.79 54.9733 280.716 54.0529 280.739C53.9287 280.742 53.8093 280.727 53.7023 280.685C53.2711 280.515 52.8633 279.846 52.8633 279.846" stroke="#1D1E22" stroke-width="1.25" stroke-linecap="round"/>
<path d="M54.121 269.358C54.121 269.358 54.5154 272.719 54.121 274.811C53.8563 276.217 53.0685 277.94 52.4441 279.155C51.9235 280.168 51.0601 281.211 49.926 281.104V281.104C49.1967 281.035 48.248 280.265 48.248 280.265" stroke="#1D1E22" stroke-width="1.25" stroke-linecap="round"/>
<path d="M49.9255 267.68C49.9255 267.68 51.6614 272.3 50.7645 274.811C48.667 280.684 45.7305 280.684 45.7305 280.684" stroke="#1D1E22" stroke-width="1.25" stroke-linecap="round"/>
<path d="M44.4743 268.519C44.4743 268.519 47.2826 271.831 47.4108 274.392C47.5795 277.761 44.5688 281.266 43.2158 281.943C42.3771 282.363 41.1179 282.782 40.6988 281.524C40.2815 280.27 41.1183 278.168 41.1183 278.168" stroke="#1D1E22" stroke-width="1.25" stroke-linecap="round"/>
<path d="M153.512 157.789C221.672 111.787 186.333 66.9675 169.082 53.9412C153.863 42.4498 141.399 69.9617 169.288 72.5589C197.178 75.1561 215.171 36.779 197.819 6.9191M153.512 157.789C154.615 155.668 156.729 150.813 156.367 148.355M153.512 157.789C154.795 157.599 158.282 157.085 161.969 156.542" stroke="#BCBCBC" stroke-width="2" stroke-linecap="round" stroke-linejoin="round"/>
</svg>
